# xmcd
#
# Track frame offsets: 
#        150
#        14585
#        27564
#        52631
#        85242
#        98825
#        116201
#        138435
#        161416
#        184847
#        213470
#        233374
#        247974
#        267448
#        297921
#        321523
#
# Disc length: 4448 seconds
#
# Revision: 3
# Processed by: cddbd v1.5.2PL0 Copyright (c) Steve Scherf et al.
# Submitted via: ExactAudioCopy v0.99pb5
#
DISCID=e0115e10
DTITLE=Chet Baker - Prince of Cool [CD3] - Chet and Friends
DYEAR=2003
DGENRE=Jazz
TTITLE0=Sweet Lorraine
TTITLE1=Aren't You Glad You're You? (with Gerry Mulligan Quartet)
TTITLE2=Tynan Time (with Art Pepper)
TTITLE3=Minor Yours (with Art Pepper)
TTITLE4=Five Brothers (with Lee Knoitz and Gerry Mulligan Quartet)
TTITLE5=Darn That Dream (with Gerry Mulligan Quartet)
TTITLE6=Lush Life (with Russ Freeman)
TTITLE7=The Route (with Art Pepper)
TTITLE8=C.T.A. (with Art Pepper)
TTITLE9=The Way You Look Tonight (with Stan Getz)
TTITLE10=Yesterdays (with Stan Getz)
TTITLE11=My Old Flame (with Lee Konitz and Gerry Mulligan Quartet)
TTITLE12=Love Nest (with Russ Freeman)
TTITLE13=Picture Of Heath (with Art Pepper)
TTITLE14=My Funny Valentine (with Gerry Mulligan Quartet)
TTITLE15=Love Me Or Leave Me (with Gerry Mulligan Quartet)
EXTD=YEAR: 2003
EXTT0=
EXTT1=
EXTT2=
EXTT3=
EXTT4=
EXTT5=
EXTT6=
EXTT7=
EXTT8=
EXTT9=
EXTT10=
EXTT11=
EXTT12=
EXTT13=
EXTT14=
EXTT15=
PLAYORDER=
